<?xml version="1.0" encoding="utf-8"?>
<!-- Generator: Adobe Illustrator 17.1.0, SVG Export Plug-In . SVG Version: 6.00 Build 0)  -->
<!DOCTYPE svg PUBLIC "-//W3C//DTD SVG 1.1//EN" "http://www.w3.org/Graphics/SVG/1.1/DTD/svg11.dtd">
<svg version="1.1" id="Layer_1" xmlns="http://www.w3.org/2000/svg" xmlns:xlink="http://www.w3.org/1999/xlink" x="0px" y="0px"
	 viewBox="0 0 500 500" enable-background="new 0 0 500 500" xml:space="preserve">
<g>
	<path fill="#FFFFFF" d="M250.4,497C114.9,497,4.6,386.8,4.6,251.3S114.9,5.6,250.4,5.6s245.7,110.2,245.7,245.7
		S385.8,497,250.4,497z M250.4,71.4c-99.2,0-179.9,80.7-179.9,179.9s80.7,179.9,179.9,179.9s179.9-80.7,179.9-179.9
		S349.5,71.4,250.4,71.4z"/>
</g>
<path fill="#FFFFFF" d="M249.7,332c3,3,2.2,8.7-1.8,12.8l-38,38c-4,4-9.8,4.8-12.8,1.8L87.3,274.8c-3-3-2.2-8.7,1.8-12.8l38-38
	c4-4,9.8-4.8,12.8-1.8L249.7,332z"/>
<path fill="#FFFFFF" d="M216.5,376.4c-4.9,4.9-12.2,5.7-16.2,1.6l-38-38c-4-4-3.3-11.3,1.6-16.2L342.7,145
	c4.9-4.9,12.2-5.7,16.2-1.6l38,38c4,4,3.3,11.3-1.6,16.2L216.5,376.4z"/>
</svg>
