<?xml version="1.0" encoding="utf-8"?>
<!-- Generator: Adobe Illustrator 17.1.0, SVG Export Plug-In . SVG Version: 6.00 Build 0)  -->
<!DOCTYPE svg PUBLIC "-//W3C//DTD SVG 1.1//EN" "http://www.w3.org/Graphics/SVG/1.1/DTD/svg11.dtd">
<svg version="1.1" id="Layer_1" xmlns="http://www.w3.org/2000/svg" xmlns:xlink="http://www.w3.org/1999/xlink" x="0px" y="0px"
	 viewBox="0 0 500 88.6" enable-background="new 0 0 500 88.6" xml:space="preserve">
<g>
	<path fill="#FFFFFF" d="M46.4,88.6C21.9,88.6,2,68.7,2,44.3S21.9,0,46.4,0s44.3,19.9,44.3,44.3S70.8,88.6,46.4,88.6z M46.4,11.9
		c-17.9,0-32.4,14.6-32.4,32.4s14.6,32.4,32.4,32.4s32.4-14.6,32.4-32.4S64.2,11.9,46.4,11.9z"/>
</g>
<path fill="#FFFFFF" d="M46.2,58.9c0.5,0.5,0.4,1.6-0.3,2.3L39.1,68c-0.7,0.7-1.8,0.9-2.3,0.3L17,48.5c-0.5-0.5-0.4-1.6,0.3-2.3
	l6.8-6.8c0.7-0.7,1.8-0.9,2.3-0.3L46.2,58.9z"/>
<path fill="#FFFFFF" d="M40.2,66.9c-0.9,0.9-2.2,1-2.9,0.3l-6.8-6.8c-0.7-0.7-0.6-2,0.3-2.9L63,25.1c0.9-0.9,2.2-1,2.9-0.3l6.8,6.8
	c0.7,0.7,0.6,2-0.3,2.9L40.2,66.9z"/>
<g>
	<path fill="#FFFFFF" d="M143.3,53.5V37.8h40.1c0,0.5,0.1,1.1,0.1,1.7c0,0.6,0,1.5,0,2.7c0,12.9-3.4,22.9-10.2,30
		c-6.8,7.1-16.4,10.7-28.7,10.7c-6.1,0-11.5-0.9-16.2-2.7c-4.7-1.8-8.9-4.6-12.7-8.4c-3.5-3.6-6.3-7.8-8.3-12.7
		c-2-4.9-2.9-10-2.9-15.4c0-5.6,1-10.7,2.9-15.4c1.9-4.7,4.8-8.9,8.5-12.7c3.8-3.6,8.1-6.4,12.9-8.3c4.9-1.9,10.1-2.8,15.7-2.8
		c7.3,0,13.8,1.4,19.5,4.3c5.6,2.9,10.4,7.2,14.2,12.9l-17.7,8.5c-2.1-2.9-4.5-5.1-7.1-6.5c-2.6-1.4-5.6-2.1-8.9-2.1
		c-6.1,0-10.9,2-14.4,6.1c-3.5,4.1-5.3,9.6-5.3,16.7c0,7.1,1.8,12.7,5.3,16.8c3.5,4.1,8.3,6.1,14.4,6.1c5.2,0,9.5-1.3,13-3.8
		c3.5-2.5,5.5-5.9,6.1-10.2H143.3z"/>
	<path fill="#FFFFFF" d="M185.9,13.3c0-2.8,1-5.1,2.9-7.1c2-1.9,4.3-2.9,7.1-2.9c2.9,0,5.3,1,7.2,2.9c1.9,1.9,2.9,4.3,2.9,7.1
		s-1,5.2-2.9,7.2c-2,2-4.3,3-7.1,3c-2.7,0-5.1-1-7.1-3C186.9,18.4,185.9,16.1,185.9,13.3z M186.8,81.1V29.4h18.3v51.7H186.8z"/>
	<path fill="#FFFFFF" d="M217.6,81.1V42.3h-7.7V29.4h7.7V14h18v15.4h7.7v12.9h-7.7v38.8H217.6z"/>
	<path fill="#FFFFFF" d="M250.9,81.1V6.2h21.3c8.4,0,14.2,0.4,17.5,1.2c3.3,0.8,6.1,2.1,8.5,3.9c2.7,2,4.8,4.7,6.2,7.8
		s2.2,6.7,2.2,10.5c0,5.8-1.4,10.5-4.3,14.1c-2.8,3.6-7,6-12.5,7.2l20.4,30.2h-23.1l-17.2-29.3v29.3H250.9z M270.1,41.6h3.8
		c4.4,0,7.6-0.7,9.6-2.3c2-1.5,3-3.9,3-7.1c0-3.8-0.9-6.4-2.8-8s-5.1-2.4-9.5-2.4h-4.1V41.6z"/>
	<path fill="#FFFFFF" d="M313.9,81.1V6.2h15.6c11.6,0,19.9,0.5,24.7,1.6c4.8,1.1,9.1,2.9,12.7,5.5c4.7,3.3,8.3,7.5,10.8,12.7
		c2.5,5.2,3.7,11.1,3.7,17.7c0,6.6-1.2,12.5-3.7,17.7c-2.5,5.2-6.1,9.4-10.8,12.7c-3.6,2.5-7.7,4.3-12.4,5.4
		c-4.6,1.1-11.8,1.6-21.6,1.6h-3.4H313.9z M334.1,64.3h3.4c8,0,13.9-1.6,17.5-4.9c3.7-3.3,5.5-8.5,5.5-15.7s-1.8-12.4-5.5-15.8
		c-3.7-3.3-9.5-5-17.5-5h-3.4V64.3z"/>
	<path fill="#FFFFFF" d="M437.5,29.4v26.4c0,5.8-0.5,10.2-1.4,13c-0.9,2.8-2.5,5.3-4.7,7.5c-2.3,2.3-5.1,4-8.5,5.1
		c-3.4,1.1-7.4,1.7-12,1.7c-4.6,0-8.5-0.6-11.9-1.7c-3.4-1.1-6.3-2.8-8.7-5.1c-2.2-2.1-3.8-4.6-4.7-7.4c-0.9-2.8-1.4-7.2-1.4-13
		V29.4h17.4V57c0,4.3,0.7,7.5,2.1,9.4c1.4,1.9,3.7,2.9,7,2.9c3.2,0,5.6-0.9,7-2.8c1.4-1.9,2.1-5,2.1-9.4V29.4H437.5z"/>
	<path fill="#FFFFFF" d="M442.2,81.1V29.4h16.7v10.5c2.4-4.2,5.2-7.3,8.4-9.2c3.2-1.9,7-2.9,11.4-2.9c3.3,0,6.3,0.5,8.9,1.6
		c2.6,1.1,4.7,2.6,6.4,4.6c1.4,1.7,2.3,3.9,2.9,6.3c0.6,2.5,0.9,6.2,0.9,11.1v29.6h-18.3V53.4c0-4.1-0.7-7.1-2-9s-3.5-2.8-6.5-2.8
		c-3.8,0-6.5,1.4-8.3,4.2c-1.7,2.8-2.6,7.3-2.6,13.6v21.7H442.2z"/>
</g>
</svg>
